<mxfile host="app.diagrams.net" modified="2024-05-23T06:36:01.600Z" agent="Mozilla/5.0 (Windows NT 10.0; Win64; x64) AppleWebKit/537.36 (KHTML, like Gecko) Chrome/125.0.0.0 Safari/537.36" etag="y4Q3aRujKbgroTt235en" version="24.4.6" type="device">
  <diagram name="Страница — 1" id="Zi-fuhz58FKSujJBGOSV">
    <mxGraphModel dx="1434" dy="780" grid="1" gridSize="10" guides="1" tooltips="1" connect="1" arrows="1" fold="1" page="1" pageScale="1" pageWidth="827" pageHeight="1169" math="0" shadow="0">
      <root>
        <mxCell id="0" />
        <mxCell id="1" parent="0" />
        <mxCell id="0JgXmJbpo-Sl4ZRrTJvD-20" value="Алгоритм расчёта количества заявок&lt;div&gt;&lt;br&gt;&lt;/div&gt;" style="text;html=1;align=center;verticalAlign=middle;resizable=0;points=[];autosize=1;strokeColor=none;fillColor=none;" vertex="1" parent="1">
          <mxGeometry x="160" y="100" width="230" height="40" as="geometry" />
        </mxCell>
        <mxCell id="0JgXmJbpo-Sl4ZRrTJvD-23" style="edgeStyle=orthogonalEdgeStyle;rounded=0;orthogonalLoop=1;jettySize=auto;html=1;" edge="1" parent="1" source="0JgXmJbpo-Sl4ZRrTJvD-21" target="0JgXmJbpo-Sl4ZRrTJvD-24">
          <mxGeometry relative="1" as="geometry">
            <mxPoint x="475" y="260" as="targetPoint" />
          </mxGeometry>
        </mxCell>
        <mxCell id="0JgXmJbpo-Sl4ZRrTJvD-21" value="Начало&lt;div&gt;total_request&lt;br&gt;&lt;/div&gt;" style="ellipse;whiteSpace=wrap;html=1;" vertex="1" parent="1">
          <mxGeometry x="220" y="140" width="90" height="60" as="geometry" />
        </mxCell>
        <mxCell id="0JgXmJbpo-Sl4ZRrTJvD-22" value="Конец" style="ellipse;whiteSpace=wrap;html=1;" vertex="1" parent="1">
          <mxGeometry x="220" y="690" width="90" height="60" as="geometry" />
        </mxCell>
        <mxCell id="0JgXmJbpo-Sl4ZRrTJvD-25" style="edgeStyle=orthogonalEdgeStyle;rounded=0;orthogonalLoop=1;jettySize=auto;html=1;" edge="1" parent="1" source="0JgXmJbpo-Sl4ZRrTJvD-24" target="0JgXmJbpo-Sl4ZRrTJvD-27">
          <mxGeometry relative="1" as="geometry">
            <mxPoint x="265" y="380" as="targetPoint" />
          </mxGeometry>
        </mxCell>
        <mxCell id="0JgXmJbpo-Sl4ZRrTJvD-24" value="&lt;div&gt;request&lt;/div&gt;&lt;div&gt;total_request&lt;/div&gt;" style="shape=parallelogram;perimeter=parallelogramPerimeter;whiteSpace=wrap;html=1;fixedSize=1;" vertex="1" parent="1">
          <mxGeometry x="205" y="240" width="120" height="60" as="geometry" />
        </mxCell>
        <mxCell id="0JgXmJbpo-Sl4ZRrTJvD-30" style="edgeStyle=orthogonalEdgeStyle;rounded=0;orthogonalLoop=1;jettySize=auto;html=1;" edge="1" parent="1" source="0JgXmJbpo-Sl4ZRrTJvD-27" target="0JgXmJbpo-Sl4ZRrTJvD-29">
          <mxGeometry relative="1" as="geometry" />
        </mxCell>
        <mxCell id="0JgXmJbpo-Sl4ZRrTJvD-27" value="Получение данных обо всех заявках (request)" style="rounded=1;whiteSpace=wrap;html=1;" vertex="1" parent="1">
          <mxGeometry x="205" y="340" width="120" height="60" as="geometry" />
        </mxCell>
        <mxCell id="0JgXmJbpo-Sl4ZRrTJvD-31" style="edgeStyle=orthogonalEdgeStyle;rounded=0;orthogonalLoop=1;jettySize=auto;html=1;" edge="1" parent="1" source="0JgXmJbpo-Sl4ZRrTJvD-29" target="0JgXmJbpo-Sl4ZRrTJvD-32">
          <mxGeometry relative="1" as="geometry">
            <mxPoint x="265" y="600" as="targetPoint" />
          </mxGeometry>
        </mxCell>
        <mxCell id="0JgXmJbpo-Sl4ZRrTJvD-29" value="Занести количество request в переменную total_request" style="rounded=1;whiteSpace=wrap;html=1;" vertex="1" parent="1">
          <mxGeometry x="201.25" y="450" width="127.5" height="70" as="geometry" />
        </mxCell>
        <mxCell id="0JgXmJbpo-Sl4ZRrTJvD-33" style="edgeStyle=orthogonalEdgeStyle;rounded=0;orthogonalLoop=1;jettySize=auto;html=1;" edge="1" parent="1" source="0JgXmJbpo-Sl4ZRrTJvD-32" target="0JgXmJbpo-Sl4ZRrTJvD-22">
          <mxGeometry relative="1" as="geometry" />
        </mxCell>
        <mxCell id="0JgXmJbpo-Sl4ZRrTJvD-32" value="total_request" style="shape=document;whiteSpace=wrap;html=1;boundedLbl=1;" vertex="1" parent="1">
          <mxGeometry x="220" y="580" width="90" height="60" as="geometry" />
        </mxCell>
      </root>
    </mxGraphModel>
  </diagram>
</mxfile>
